inDegrees=yes
name=ik_S47_A13_T02
DataType=double
version=3
OpenSimVersion=4.3-2021-08-27-4bc7ad9
endheader
time	pelvis_tilt	pelvis_list	pelvis_rotation	pelvis_tx	pelvis_ty	pelvis_tz	hip_flexion_r	hip_adduction_r	hip_rotation_r	knee_angle_r	knee_angle_r_beta	ankle_angle_r	subtalar_angle_r	mtp_angle_r	hip_flexion_l	hip_adduction_l	hip_rotation_l	knee_angle_l	knee_angle_l_beta	ankle_angle_l	subtalar_angle_l	mtp_angle_l	lumbar_extension	lumbar_bending	lumbar_rotation	arm_flex_r	arm_add_r	arm_rot_r	elbow_flex_r	pro_sup_r	wrist_flex_r	wrist_dev_r	arm_flex_l	arm_add_l	arm_rot_l	elbow_flex_l	pro_sup_l	wrist_flex_l	wrist_dev_l
0	0	0	0	0	0.9399999999999999	0	0	0	0	0	0	0	0	0	0	0	0	0	0	0	0	0	0	0	0	0	0	0	0	89.99999999963507	0	0	0	0	0	0	89.99999999869995	0	0
0.02	-1.794802281995997	-2.579716270423026	25.14915400891895	0	0.9399999999999999	0	2.622600925420858	-1.227569593033821	-0.883159348434889	4.073143545801042	0.07108976578058462	0	0	0	2.622600925420858	-1.227569593033821	-0.883159348434889	4.073143545801042	0.07108976578058462	0	0	0	-1.398523828345787	0.6458728343799018	9.285346224846194	23.53694592124111	5.660891345880201	19.19094998701639	18.39826666928544	143.2815853805473	0	0	21.04252150581441	4.039409393618237	16.71905925894681	10.74651226375044	143.4096951441516	0	0
0.04	-1.279770796508767	-2.018473746185116	29.23415876960397	0	0.9399999999999999	0	42.89176354250611	-16.32965543428635	-13.65656035260545	47.71941370470653	0.8328608862684339	0	0	0	42.89176354250611	-16.32965543428635	-13.65656035260545	47.71941370470653	0.8328608862684339	0	0	0	-2.088021808017897	0.4954349422080224	5.215531377977491	23.55161511711688	5.671422462060965	19.19884232934545	18.41040438405998	143.2893835637157	0	0	21.05380644368779	4.041667052298073	16.73584412577939	10.73980648355401	143.4083828494319	0	0
0.06	-1.278973280097956	-2.024225988303459	29.25033776080163	0	0.9399999999999999	0	42.89368584822494	-16.31379047341225	-13.65002306203908	47.72407952692194	0.8329423202284056	0	0	0	42.89368584822494	-16.31379047341225	-13.65002306203908	47.72407952692194	0.8329423202284056	0	0	0	-2.089937517119256	0.4885891201915443	5.218355247824766	23.54085389359719	5.679717107938307	19.20521468926122	18.41910082509788	143.264676237872	0	0	21.06474524299662	4.030202516986107	16.73331513387549	10.75353896349807	143.3910186898895	0	0
0.08	-1.292836811331685	-2.048601703074867	29.27096300083756	0	0.9399999999999999	0	42.89384787762074	-16.31210168502213	-13.64940274862951	47.72446841790064	0.8329491076564153	0	0	0	42.89384787762074	-16.31210168502213	-13.64940274862951	47.72446841790064	0.8329491076564153	0	0	0	-2.114274072230284	0.4745799349611717	5.207080692534732	23.56978293764499	5.685265487647187	19.31966301298161	18.42725518049866	143.2573310501379	0	3.92985749497723e-36	21.08685510212729	4.023233089650267	16.78098904909465	10.75770914068518	143.3893616614466	0	3.92985749497723e-36
0.1	-1.302251982415831	-2.058106607017868	29.25720882787085	0	0.9399999999999999	0	42.89722661946643	-16.28916340017554	-13.63892632339397	47.73286817060985	0.8330957109975443	0	0	0	42.89722661946643	-16.28916340017554	-13.63892632339397	47.73286817060985	0.8330957109975443	0	0	0	-2.127186609030701	0.4689896936947487	5.200123340765682	23.59865921725919	5.699555138873317	19.35890012662261	18.45997638288721	143.2215882324979	0	0	21.09889586313224	4.013896677235776	16.80060229605349	10.76461059131596	143.3198634751191	0	0
0.12	-1.307165553872003	-2.073441831617148	29.2684823550991	0	0.9399999999999999	0	42.90068127454796	-16.26297946298324	-13.62767830987543	47.74136383207183	0.8332439882621906	0	0	0	42.90068127454796	-16.26297946298324	-13.62767830987543	47.74136383207183	0.8332439882621906	0	0	0	-2.138937352586859	0.4558828498966047	5.196170399066545	23.60772119654013	5.710221062451219	19.40593357263175	18.495918849179	143.1800779732457	0	0	21.09847503486905	4.002376060983814	16.8720303869268	10.80051908246661	143.2631081128245	0	0
0.14	-1.312130466048339	-2.089434015498631	29.29697324531298	0	0.9399999999999999	0	42.90721672286195	-16.21749481751685	-13.60713244051985	47.75752845914417	0.83352611422696	0	0	0	42.90721672286195	-16.21749481751685	-13.60713244051985	47.75752845914417	0.83352611422696	0	0	0	-2.151022129148909	0.4403467369315816	5.185634160229777	23.64004233323192	5.708624443471404	19.45528531970207	18.58152650658908	143.0956475117659	0	0	21.11099837872001	3.978333016241217	16.95951713238166	10.88000908842431	143.1599404091266	0	0
0.16	-1.312753703259896	-2.103309474467281	29.32884780562667	0	0.9399999999999999	0	42.90703932623391	-16.22169342541347	-13.60829592567521	47.75720343115402	0.8335204414183707	0	0	0	42.90703932623391	-16.22169342541347	-13.60829592567521	47.75720343115402	0.8335204414183707	0	0	0	-2.158066805788184	0.4281935614502679	5.192662059920901	23.6773221174532	5.729387210763962	19.48138763612246	18.48755464609242	143.1575623461306	0	0	21.12890355425618	3.991518087621557	16.98282921777793	10.80071835726503	143.200473997646	0	0
0.18	-1.309001297906328	-2.120593767993528	29.367096490749	0	0.9399999999999999	0	42.90907890189	-16.20531530686976	-13.6014591556223	47.76217315398217	0.8336071794446335	0	0	0	42.90907890189	-16.20531530686976	-13.6014591556223	47.76217315398217	0.8336071794446335	0	0	0	-2.162766234404447	0.4092722291855217	5.203148634774609	23.6848158361459	5.74257555702921	19.51225042539323	18.50089899588079	143.1441742119229	0	0	21.14084858843217	3.987433408826143	16.99653432336681	10.81188187350198	143.1830406042261	0	0
0.2	-1.321426620850518	-2.148206833269088	29.38127536916817	0	0.9399999999999999	0	42.90947851679443	-16.20107162671792	-13.59990946488583	47.76310959487972	0.8336235234215461	0	0	0	42.90947851679443	-16.20107162671792	-13.59990946488583	47.76310959487972	0.8336235234215461	0	0	0	-2.187357387603194	0.3914789814951743	5.194815359216165	23.71862435846401	5.777832299287993	19.59241501697464	18.50626218183212	143.1368826399961	0	0	21.18401048054112	3.961474013454421	16.95191624948072	10.8097848570152	143.1957582985904	0	0
0.22	-1.324761709986888	-2.159241841854651	29.40818621236369	0	0.9399999999999999	0	42.90970623495387	-16.19866848444678	-13.59902989443682	47.76364606085012	0.8336328865190544	0	0	0	42.90970623495387	-16.19866848444678	-13.59902989443682	47.76364606085012	0.8336328865190544	0	0	0	-2.195637016032157	0.383305255130836	5.195464346070013	23.75210955521325	5.768665233691615	19.59171350858121	18.50047323174758	143.1360442175733	0	0	21.18731454179963	3.948110463808447	16.85674197818382	10.81199887945711	143.2240336221168	0	0
0.24	-1.336836972040831	-2.179000879113089	29.43214174707857	0	0.9399999999999999	0	42.91122935358289	-16.18699234971563	-13.59403914308295	47.76737981017751	0.8336980527382615	0	0	0	42.91122935358289	-16.18699234971563	-13.59403914308295	47.76737981017751	0.8336980527382615	0	0	0	-2.215606651512089	0.3707338650557184	5.198740752201782	23.78936340378207	5.767961658281059	19.6259303871293	18.49606714298656	143.1186238859342	0	0	21.22444056036653	3.943282755513796	16.87596749549719	10.78380190142029	143.2231016055175	0	0
0.26	-1.340306434316887	-2.196488053481996	29.45666863102815	0	0.9399999999999999	0	42.91182450517924	-16.18105397812026	-13.59181901904037	47.76879514894873	0.8337227550598504	0	0	0	42.91182450517924	-16.18105397812026	-13.59181901904037	47.76879514894873	0.8337227550598504	0	0	0	-2.226987163656976	0.3564775160375626	5.203761562727679	23.81555480067927	5.781931777152002	19.5908076644059	18.49015270477894	143.1416535413525	0	0	21.24806984511294	3.928961158905618	16.8422006439522	10.76633288163852	143.2590288217373	0	0
0.28	-1.345075518686208	-2.203789156555017	29.47695175496246	0	0.9399999999999999	0	42.91237387165973	-16.17602472045907	-13.58985998722093	47.77011656272253	0.8337458180809845	0	0	0	42.91237387165973	-16.17602472045907	-13.58985998722093	47.77011656272253	0.8337458180809845	0	0	0	-2.234502047918153	0.3517657360651579	5.209140751031691	23.81663667851517	5.793153381203187	19.61011747935461	18.48314922358366	143.1539073618698	0	0	21.23566422411103	3.932399117850756	16.83382539567371	10.73828868379862	143.2578224124197	0	0
0.3	-1.346659611575882	-2.20984911829064	29.49992681825474	0	0.9399999999999999	0	42.91329604532878	-16.16842026592679	-13.58673444901078	47.77236062809213	0.833784984410314	0	0	0	42.91329604532878	-16.16842026592679	-13.58673444901078	47.77236062809213	0.833784984410314	0	0	0	-2.238605212228243	0.3463068155540028	5.214470903952147	23.81084162777228	5.798158033866253	19.64049426900494	18.48199294677685	143.1666391893821	0	0	21.21147964959596	3.922039739581463	16.83527446456023	10.72310326894447	143.2527289791485	0	0
0.32	-1.350877601097902	-2.223737414973666	29.5262826718931	0	0.9399999999999999	0	42.91415251644181	-16.16078692377886	-13.58371627456503	47.77442441967124	0.8338210043684444	0	0	0	42.91415251644181	-16.16078692377886	-13.58371627456503	47.77442441967124	0.8338210043684444	0	0	0	-2.248770573784504	0.3352407612023709	5.221872260523314	23.81708655736029	5.804780336838637	19.66984332193728	18.48687590033752	143.1729223997275	0	-1.616420763446103e-35	21.1899694609355	3.914605852782453	16.84855095982751	10.71552432081938	143.2516990192953	0	-1.616420763446103e-35
